<svg width="24" height="24" viewBox="0 0 24 24" fill="none" xmlns="http://www.w3.org/2000/svg">
<path fill-rule="evenodd" clip-rule="evenodd" d="M20.8469 3.93563C19.5193 2.58179 18.0414 2.16297 16.6535 2.26457C15.3031 2.36343 14.087 2.9492 13.1988 3.51263C12.4984 3.95695 11.5014 3.95695 10.8009 3.51263C9.91273 2.94921 8.69663 2.36344 7.34627 2.26459C5.95837 2.16299 4.48049 2.58181 3.15293 3.93563C1.58565 5.53392 1.09393 7.50695 1.29139 9.50271C1.48657 11.4755 2.35189 13.4809 3.50601 15.2579C4.6632 17.0396 6.14139 18.6393 7.62436 19.8008C9.0747 20.9368 10.6527 21.75 11.9999 21.75C13.3471 21.75 14.9251 20.9368 16.3755 19.8008C17.8584 18.6393 19.3366 17.0396 20.4938 15.2579C21.6479 13.4809 22.5132 11.4755 22.7084 9.50271C22.9059 7.50694 22.4142 5.53392 20.8469 3.93563Z" fill="#24252D"/>
</svg>
