<svg width="24" height="24" viewBox="0 0 24 24" fill="none" xmlns="http://www.w3.org/2000/svg">
<path fill-rule="evenodd" clip-rule="evenodd" d="M11.6711 4.03512C11.3963 5.88858 11.051 8.77816 12.9191 12.0139C14.7873 15.2495 17.4624 16.3953 19.2049 17.084C19.2651 17.1078 19.3252 17.1314 19.3849 17.1549C19.7455 17.2967 20.0926 17.4331 20.362 17.567C20.5218 17.6464 20.6921 17.7428 20.8397 17.8633C20.9848 17.9818 21.1628 18.168 21.2468 18.4406C21.4377 19.0598 21.014 19.53 20.7543 19.7661C20.4457 20.0468 19.9792 20.3508 19.3767 20.6986C14.235 23.6672 7.66043 21.9055 4.6919 16.7639C1.72337 11.6222 3.48503 5.04761 8.62667 2.07908C9.22917 1.73123 9.72572 1.47916 10.1231 1.35225C10.4574 1.24545 11.0765 1.11361 11.5173 1.58853C11.7113 1.79758 11.7836 2.04478 11.8136 2.22969C11.8442 2.41779 11.8425 2.61349 11.8314 2.79163C11.8126 3.09187 11.7573 3.46066 11.6997 3.84378C11.6902 3.90725 11.6806 3.97111 11.6711 4.03512ZM10.3182 2.88296C10.0914 2.98329 9.78522 3.14224 9.37667 3.37812C4.95247 5.93243 3.43662 11.5896 5.99094 16.0139C8.54525 20.4381 14.2025 21.9539 18.6267 19.3996C19.0352 19.1637 19.326 18.978 19.5263 18.8317C19.3447 18.7513 19.1209 18.6632 18.8443 18.5542C18.7833 18.5302 18.7198 18.5052 18.6536 18.479C16.8344 17.76 13.752 16.4564 11.6201 12.7639C9.48823 9.07134 9.90043 5.75008 10.1874 3.81511C10.1978 3.74469 10.2079 3.67716 10.2176 3.61237C10.2616 3.3183 10.2971 3.08042 10.3182 2.88296ZM10.7182 2.74803C10.7178 2.74858 10.711 2.74971 10.6992 2.74977C10.7128 2.74751 10.7187 2.74748 10.7182 2.74803ZM19.8321 18.5684C19.838 18.5583 19.8424 18.5529 19.8431 18.5528C19.8438 18.5527 19.8409 18.5578 19.8321 18.5684Z" fill="#24252D"/>
</svg>
