<svg width="24" height="24" viewBox="0 0 24 24" fill="none" xmlns="http://www.w3.org/2000/svg">
<path d="M20.5761 7.48016C20.8413 7.16195 20.7983 6.68903 20.4801 6.42385C20.1619 6.15868 19.689 6.20167 19.4238 6.51988L14.0331 12.9887C12.9503 14.2881 12.1885 15.1994 11.5278 15.796C10.8826 16.3787 10.4372 16.5639 9.99996 16.5639C9.5627 16.5639 9.11736 16.3787 8.47207 15.796C7.81137 15.1994 7.04963 14.2881 5.9668 12.9887L4.57612 11.3199C4.31095 11.0017 3.83803 10.9587 3.51982 11.2239C3.20161 11.489 3.15862 11.9619 3.42379 12.2802L4.85306 13.9953C5.88833 15.2376 6.71742 16.2326 7.46678 16.9092C8.24083 17.6082 9.03209 18.0639 9.99996 18.0639C10.9678 18.0639 11.7591 17.6082 12.5331 16.9092C13.2825 16.2326 14.1116 15.2377 15.1468 13.9953L20.5761 7.48016Z" fill="#24252D"/>
</svg>
